<?xml version="1.0" encoding="UTF-8" standalone="no"?>
<!-- Created with Inkscape (http://www.inkscape.org/) -->

<svg
   xmlns:osb="http://www.openswatchbook.org/uri/2009/osb"
   xmlns:dc="http://purl.org/dc/elements/1.1/"
   xmlns:cc="http://creativecommons.org/ns#"
   xmlns:rdf="http://www.w3.org/1999/02/22-rdf-syntax-ns#"
   xmlns:svg="http://www.w3.org/2000/svg"
   xmlns="http://www.w3.org/2000/svg"
   xmlns:xlink="http://www.w3.org/1999/xlink"
   xmlns:sodipodi="http://sodipodi.sourceforge.net/DTD/sodipodi-0.dtd"
   xmlns:inkscape="http://www.inkscape.org/namespaces/inkscape"
   id="svg3230"
   version="1.1"
   inkscape:version="0.48.2 r9819"
   width="500"
   height="500"
   sodipodi:docname="pie.svg">
  <metadata
     id="metadata3236">
    <rdf:RDF>
      <cc:Work
         rdf:about="">
        <dc:format>image/svg+xml</dc:format>
        <dc:type
           rdf:resource="http://purl.org/dc/dcmitype/StillImage" />
        <dc:title></dc:title>
      </cc:Work>
    </rdf:RDF>
  </metadata>
  <defs
     id="defs3234">
    <linearGradient
       id="linearGradient5987"
       osb:paint="solid">
      <stop
         style="stop-color:#00e6e6;stop-opacity:1;"
         offset="0"
         id="stop5989" />
    </linearGradient>
    <linearGradient
       id="linearGradient5951"
       osb:paint="solid">
      <stop
         style="stop-color:#4d4d4d;stop-opacity:1;"
         offset="0"
         id="stop5953" />
    </linearGradient>
    <linearGradient
       id="linearGradient4507">
      <stop
         style="stop-color:#ffffff;stop-opacity:1;"
         offset="0"
         id="stop4509" />
      <stop
         style="stop-color:#b4b4b4;stop-opacity:1;"
         offset="1"
         id="stop4511" />
    </linearGradient>
    <inkscape:perspective
       sodipodi:type="inkscape:persp3d"
       inkscape:vp_x="1536.4434 : 432.84339 : 1"
       inkscape:vp_y="282.68381 : -195.87155 : 1"
       inkscape:vp_z="-40.923746 : 561.19489 : 1"
       inkscape:persp3d-origin="-5.2488555 : 311.13144 : 1"
       id="perspective3230" />
    <radialGradient
       inkscape:collect="always"
       xlink:href="#linearGradient4507"
       id="radialGradient5969"
       cx="199.75"
       cy="219.75"
       fx="199.75"
       fy="219.75"
       r="106.25"
       gradientUnits="userSpaceOnUse" />
  </defs>
  <sodipodi:namedview
     pagecolor="#ffffff"
     bordercolor="#666666"
     borderopacity="1"
     objecttolerance="10"
     gridtolerance="10"
     guidetolerance="10"
     inkscape:pageopacity="0"
     inkscape:pageshadow="2"
     inkscape:window-width="1436"
     inkscape:window-height="856"
     id="namedview3232"
     showgrid="false"
     inkscape:zoom="2"
     inkscape:cx="161.5"
     inkscape:cy="306.50109"
     inkscape:window-x="0"
     inkscape:window-y="0"
     inkscape:window-maximized="1"
     inkscape:current-layer="svg3230" />
  <rect
     style="fill:url(#radialGradient5969);fill-opacity:1;stroke:#00e6e6;stroke-width:10;stroke-miterlimit:4;stroke-opacity:1;stroke-dasharray:none"
     id="rect3570"
     width="202.5"
     height="202.5"
     x="98.5"
     y="118.5"
     ry="20" />
  <g
     inkscape:export-filename="/Users/juzmach/Git/hackathon-hk/Art/pie.png"
     inkscape:export-ydpi="90"
     inkscape:export-xdpi="90"
     id="g3240"
     transform="matrix(0.33555886,0,0,0.93793503,113.60489,-10.304242)">
    <path
       inkscape:connector-curvature="0"
       id="path3254"
       d="m 223.5,315.34978 c -2.2,-0.17271 -11.875,-0.79519 -21.5,-1.38328 -9.625,-0.58809 -21.325,-1.6826 -26,-2.43223 -4.675,-0.74964 -11.425,-1.65238 -15,-2.0061 -9.50359,-0.9403 -39.53469,-7.19548 -46.5,-9.68548 -3.3,-1.17971 -9.6,-3.96346 -14,-6.18611 C 93.274267,290.00651 90.51594,287.61548 72,268.95162 59.850012,256.70457 49.79784,247.42108 47.321049,246.15985 39.781856,242.32074 31.65248,234.70138 28.215468,228.25288 26.446961,224.93482 25,221.08554 25,219.69892 c 0,-3.64031 4.66842,-7.15191 18,-13.53964 6.325,-3.03058 14.410855,-7.52638 17.968566,-9.99065 4.20232,-2.91077 8.820067,-5.08536 13.180478,-6.20697 3.691552,-0.94955 8.08464,-2.70393 9.762418,-3.89862 2.893927,-2.06065 3.474939,-2.11398 11.319521,-1.03886 4.547959,0.6233 11.551877,1.84486 15.564267,2.71457 6.48551,1.40578 9.14938,1.43028 24,0.22075 9.18761,-0.7483 21.65475,-1.24555 27.70475,-1.105 9.53864,0.22159 12.59421,-0.15341 23,-2.82276 6.6,-1.69306 12.15,-3.51782 12.33333,-4.05502 C 198.01667,179.43952 198.82,179 199.61852,179 c 0.79851,0 2.44851,-0.6221 3.66666,-1.38245 1.21815,-0.76034 5.44965,-1.63184 9.40334,-1.93666 4.28042,-0.33001 8.25227,-1.25121 9.818,-2.27712 3.21989,-2.10975 9.35093,-2.05008 19.07042,0.18561 6.88833,1.58446 7.1871,1.57165 11.21016,-0.48077 6.32094,-3.2247 13.7613,-2.88829 19.31242,0.87319 4.9465,3.35179 8.01587,3.70359 13.24624,1.5182 1.9745,-0.825 4.84703,-1.5 6.3834,-1.5 4.56795,0 25.10527,7.56024 30.6387,11.27878 6.42892,4.32032 5.92269,4.15882 21.25914,6.78198 12.82598,2.19376 15.95735,2.19639 30.373,0.0256 3.025,-0.45553 10,-0.44045 15.5,0.0335 5.5,0.47396 17.65,0.83081 27,0.793 20.58178,-0.0832 25.78028,1.00131 34.65958,7.23091 3.48723,2.44659 8.36542,5.30058 10.84042,6.34219 6.01134,2.5299 6.63424,3.06202 11.66401,9.96414 4.59761,6.3091 5.4742,10.44285 2.98519,14.07741 -0.74295,1.08488 -1.63913,3.16065 -1.99153,4.61282 -0.67106,2.76535 -5.85781,6.55137 -15.15767,11.06421 -2.75,1.33446 -6.35,3.16163 -8,4.06038 -1.65,0.89875 -5.925,2.93066 -9.5,4.51535 -6.70354,2.97149 -16.08423,11.34766 -27.69658,24.73076 -2.85812,3.29394 -7.95974,8.01399 -11.33695,10.48899 -3.3772,2.475 -8.15361,6.1875 -10.61424,8.25 -2.46063,2.0625 -4.79221,3.75 -5.18129,3.75 -0.38908,0 -5.64922,1.12051 -11.68918,2.49002 -6.03997,1.36951 -17.73176,3.41129 -25.98176,4.53729 -8.25,1.126 -17.40988,2.73183 -20.3553,3.56852 -8.18332,2.32461 -85.45507,4.33892 -105.6447,2.75395 z"
       style="fill:#d6cbb6" />
    <path
       inkscape:connector-curvature="0"
       id="path3252"
       d="m 227,315.33997 c -23.53985,-1.24147 -41.87993,-2.65254 -49.5,-3.80847 -4.95,-0.75089 -11.925,-1.65463 -15.5,-2.0083 -11.54525,-1.14217 -44.2796,-8.42348 -51.93902,-11.55312 C 96.026717,292.23566 92.396451,289.4557 71.51513,268.45267 58.270998,255.13134 49.529257,247.16714 45.674465,244.91044 33.456289,237.75756 23.09943,223.46671 25.81478,217.50717 c 1.402968,-3.07918 7.166964,-6.75221 18.987746,-12.09969 8.935638,-4.04231 15.442375,-7.85405 19.697474,-11.53909 1.1,-0.95263 5.319825,-2.62049 9.377389,-3.70635 4.057565,-1.08586 8.68953,-2.9444 10.293256,-4.13008 2.611143,-1.9305 3.46,-2.0516 8.122611,-1.15871 2.863709,0.54839 7.727994,1.27536 10.809534,1.61548 3.08153,0.34012 7.58153,1.20525 10,1.92252 3.65098,1.08282 7.19734,1.0584 20.89721,-0.14388 9.075,-0.79641 21.72594,-1.38506 28.1132,-1.3081 8.84583,0.10658 13.4779,-0.34849 19.43834,-1.90967 4.30382,-1.12728 8.52788,-2.05004 9.3868,-2.05057 0.85891,-5.3e-4 4.71166,-1.56796 8.56166,-3.48318 5.42894,-2.70067 8.24306,-3.48598 12.53856,-3.49903 3.53573,-0.0107 6.95713,-0.74005 9.46144,-2.01682 4.738,-2.41557 10.27547,-2.52988 19.61797,-0.40498 6.82822,1.55305 7.14756,1.53704 12.13456,-0.60831 6.83962,-2.94232 14.16833,-2.42856 19.10861,1.33958 3.99027,3.04353 7.97578,3.39543 13.2931,1.17371 1.97451,-0.825 4.77255,-1.49614 6.21788,-1.49142 4.21829,0.0138 25.30292,7.84792 29.12788,10.82267 5.17724,4.02644 7.76023,4.90682 21.24207,7.24011 9.73271,1.68443 13.90598,1.95825 20.25793,1.32919 12.13435,-1.20172 68.88668,-0.42316 76.07884,1.04369 4.39448,0.89626 7.71702,2.44998 11.99101,5.60736 3.25169,2.40216 8.39121,5.35296 11.42116,6.55732 4.58212,1.82133 6.38884,3.34235 10.73854,9.04041 2.90433,3.80465 5.23864,7.91934 5.25,9.25418 0.0256,3.00506 -4.21149,12.09894 -6.65257,14.27822 -1.00484,0.89708 -5.07769,3.20624 -9.05077,5.13147 -3.97309,1.92522 -8.42127,4.44235 -9.88486,5.5936 -1.46359,1.15126 -3.26255,2.0932 -3.9977,2.0932 -0.73514,0 -3.83164,1.10341 -6.8811,2.45203 -5.6021,2.47751 -15.31038,11.2857 -26.20436,23.77484 -2.74747,3.14978 -7.87829,7.95263 -11.4018,10.673 -3.52351,2.72036 -7.98139,6.26577 -9.90639,7.87868 -1.925,1.61292 -4.48727,3.4499 -5.69392,4.08219 -3.29904,1.72868 -22.90811,5.72632 -39.80608,8.11512 -8.25,1.16628 -17.25,2.78975 -20,3.60773 -7.10814,2.11428 -77.45304,4.0246 -101.5,2.75638 z m 101.5,-9.16002 c 4.95,-1.08449 14.625,-2.72212 21.5,-3.63917 6.875,-0.91705 17.41538,-2.76781 23.42306,-4.1128 l 10.92306,-2.44544 11.37476,-8.67244 c 6.25612,-4.76984 12.8949,-10.74328 14.75285,-13.27431 1.85795,-2.53103 6.1534,-7.20753 9.54545,-10.39223 3.39205,-3.18469 5.92914,-6.02857 5.63797,-6.31974 -0.29116,-0.29117 -3.37064,0.39502 -6.84327,1.52486 -3.47263,1.12984 -8.11388,2.34122 -10.31388,2.69196 -2.2,0.35073 -5.8,1.24463 -8,1.98644 -2.8211,0.95123 -12.98914,1.52834 -34.5,1.9581 -16.775,0.33515 -37.475,1.23035 -46,1.98934 -8.525,0.75899 -20.45,1.68676 -26.5,2.06172 -6.05,0.37495 -13.925,1.38507 -17.5,2.24471 -9.44399,2.27087 -27.41988,2.64763 -38.9073,0.81547 -5.27599,-0.84149 -16.7927,-2.01534 -25.5927,-2.60856 -8.8,-0.59323 -24.1,-1.96795 -34,-3.05495 -9.9,-1.08699 -27.34521,-2.44042 -38.76714,-3.00762 -12.16702,-0.6042 -22.72712,-1.62602 -25.5,-2.46746 -2.60307,-0.7899 -6.56271,-1.44105 -8.7992,-1.44701 C 99.487286,259.99766 88.876863,258.11819 87.5,257.01129 85.790436,255.63693 63.917284,249.74938 63.196967,250.4697 62.169195,251.49747 96.97221,285.27655 101,287.16053 c 1.925,0.90042 5.975,2.78354 9,4.18473 6.39432,2.96188 39.24328,10.09796 56,12.1654 6.325,0.78038 15.325,1.89481 20,2.47651 19.0124,2.36569 34.81103,2.84387 83,2.51218 45.75425,-0.31493 51.34578,-0.5329 59.5,-2.3194 z"
       style="fill:#a09f9b" />
    <path
       inkscape:connector-curvature="0"
       id="path3250"
       d="m 203,313.93485 c -6.875,-0.49447 -16.1,-1.39656 -20.5,-2.00463 -4.4,-0.60808 -12.95,-1.68905 -19,-2.40217 -12.68491,-1.49518 -44.33932,-7.9921 -49.5,-10.15964 -1.925,-0.80852 -7.55,-3.45721 -12.5,-5.88598 -8.544782,-4.19258 -10.011596,-5.43502 -29,-24.56405 C 59.06835,255.38726 50.693704,247.7568 47,245.68434 39.310548,241.36996 28.962691,230.68662 26.597211,224.62008 23.722892,217.24857 24.872829,215.96376 42.367623,207 c 8.050864,-4.125 17.123574,-9.25049 20.161579,-11.38998 3.52547,-2.48278 7.775019,-4.404 11.747221,-5.31091 3.422968,-0.78152 7.884653,-2.56142 9.914857,-3.95534 2.030204,-1.39391 4.095679,-2.28445 4.589943,-1.97898 0.494265,0.30547 5.085969,1.06453 10.203787,1.6868 5.11782,0.62226 11.3541,1.74804 13.8584,2.50172 3.89555,1.17239 7.3053,1.1454 23.60493,-0.18683 10.47841,-0.85645 22.42666,-1.3149 26.55166,-1.01879 5.87606,0.42181 9.88177,-0.008 18.5,-1.98327 6.05,-1.3869 12.8,-3.33416 15,-4.32723 2.2,-0.99308 5.64301,-2.5327 7.65113,-3.42139 2.00812,-0.88869 6.06478,-1.6158 9.01481,-1.6158 3.45316,0 6.69285,-0.71239 9.09524,-2 4.55495,-2.4413 6.79441,-2.48168 18.04703,-0.32541 8.34857,1.59978 8.9634,1.59618 11.78224,-0.069 1.63571,-0.96624 5.43592,-2.01089 8.44489,-2.32144 5.06035,-0.52228 5.9327,-0.27958 11.62585,3.23443 l 6.155,3.79908 6.83037,-2.36853 6.83037,-2.36853 10.26153,3.38873 c 11.43231,3.77537 18.74809,7.10456 20.65132,9.39781 1.88969,2.27694 9.11222,4.28155 23.71712,6.58266 12.51904,1.97248 13.4609,1.99162 21,0.42691 6.44009,-1.33662 10.28622,-1.48313 20.8931,-0.79586 7.15,0.46328 18.89483,0.70348 26.09962,0.53377 19.05154,-0.44874 27.10538,1.08369 35.32986,6.72234 3.61379,2.47759 9.37372,5.77808 12.79985,7.33443 5.4146,2.45963 6.82057,3.71107 10.75,9.56847 4.64606,6.92565 5.62151,11.10158 3.08495,13.20674 -0.78965,0.65535 -1.72656,2.5157 -2.08202,4.13411 -0.77167,3.51338 -4.70151,6.68678 -13.48752,10.89135 -3.57211,1.70944 -8.06974,3.95437 -9.99474,4.98874 -1.925,1.03437 -6.9875,3.51591 -11.25,5.51454 -4.2625,1.99862 -7.75,4.08706 -7.75,4.64097 0,0.55391 -3.0375,4.01683 -6.75,7.69537 -3.7125,3.67855 -9.01478,9.16327 -11.78285,12.18827 -2.76807,3.025 -8.54022,8.2 -12.82702,11.5 -4.28679,3.3 -8.81454,6.82312 -10.06165,7.82915 -3.07378,2.47959 -19.24293,6.17467 -40.05385,9.15338 -9.47662,1.35641 -19.88395,3.20571 -23.12742,4.10955 -5.05993,1.41003 -13.42209,1.68584 -58.89721,1.94259 -29.15,0.16457 -58.625,-0.10534 -65.5,-0.59982 z m 80,-4.94305 c 29.10117,-0.70759 40.08682,-1.32257 45,-2.5191 3.575,-0.87064 13.025,-2.48666 21,-3.59114 14.65525,-2.02967 29.49982,-4.98049 34.36999,-6.83213 4.32944,-1.64605 23.24882,-16.76395 26.69166,-21.3285 1.75102,-2.32151 6.16414,-6.99777 9.80693,-10.39168 3.64279,-3.39391 6.33519,-6.45882 5.9831,-6.8109 -0.35209,-0.35209 -3.72525,0.24643 -7.49592,1.33005 -18.20938,5.23303 -18.75129,5.29646 -52.85576,6.18698 -18.15,0.47392 -37.275,1.33312 -42.5,1.90932 -5.225,0.57621 -16.69597,1.515 -25.49105,2.08619 -8.97855,0.58311 -19.45379,1.90037 -23.88738,3.00382 -9.62961,2.39668 -23.63694,2.57804 -35.62157,0.46122 -4.675,-0.82574 -15.51866,-1.94927 -24.09701,-2.49675 -8.57836,-0.54747 -23.65336,-1.89221 -33.5,-2.9883 -9.84665,-1.09609 -27.35299,-2.46723 -38.90299,-3.04697 -11.55,-0.57974 -22.8,-1.50225 -25,-2.05003 -2.2,-0.54777 -9.09481,-1.6242 -15.32181,-2.39207 -6.226991,-0.76786 -11.851991,-1.83298 -12.499997,-2.36692 C 88.030187,256.62094 85.025,255.49821 82,254.65992 c -3.025,-0.83828 -7.975,-2.22435 -11,-3.08016 -6.826117,-1.9312 -9.385887,-2.03045 -8.29969,-0.32181 0.439829,0.69187 8.502479,8.76806 17.916999,17.94707 21.916021,21.3678 24.413781,22.66682 56.259471,29.25899 11.89277,2.46185 25.67322,4.93082 30.62322,5.48661 4.95,0.55578 11.925,1.44023 15.5,1.96543 6.93628,1.01901 41.16802,3.33892 57,3.86293 2.475,0.0819 21.825,-0.27231 43,-0.78718 z"
       style="fill:#cb8a48" />
    <path
       inkscape:connector-curvature="0"
       id="path3248"
       d="m 203,313.93485 c -6.875,-0.49447 -16.1,-1.39656 -20.5,-2.00463 -4.4,-0.60808 -12.95,-1.68905 -19,-2.40217 -12.68491,-1.49518 -44.33932,-7.9921 -49.5,-10.15964 -1.925,-0.80852 -7.55,-3.45721 -12.5,-5.88598 -8.544782,-4.19258 -10.011596,-5.43502 -29,-24.56405 C 59.06835,255.38726 50.693704,247.7568 47,245.68434 39.310548,241.36996 28.962691,230.68662 26.597211,224.62008 23.722892,217.24857 24.872829,215.96376 42.367623,207 c 8.050864,-4.125 17.123574,-9.25049 20.161579,-11.38998 3.52547,-2.48278 7.775019,-4.404 11.747221,-5.31091 3.422968,-0.78152 7.884653,-2.56142 9.914857,-3.95534 2.030204,-1.39391 4.095679,-2.28445 4.589943,-1.97898 0.494265,0.30547 5.085969,1.06453 10.203787,1.6868 5.11782,0.62226 11.3541,1.74804 13.8584,2.50172 3.89555,1.17239 7.3053,1.1454 23.60493,-0.18683 10.47841,-0.85645 22.42666,-1.3149 26.55166,-1.01879 5.87606,0.42181 9.88177,-0.008 18.5,-1.98327 6.05,-1.3869 12.8,-3.33416 15,-4.32723 2.2,-0.99308 5.64301,-2.5327 7.65113,-3.42139 2.00812,-0.88869 6.06478,-1.6158 9.01481,-1.6158 3.45316,0 6.69285,-0.71239 9.09524,-2 4.55495,-2.4413 6.79441,-2.48168 18.04703,-0.32541 8.34857,1.59978 8.9634,1.59618 11.78224,-0.069 1.63571,-0.96624 5.43592,-2.01089 8.44489,-2.32144 5.06035,-0.52228 5.9327,-0.27958 11.62585,3.23443 l 6.155,3.79908 6.83037,-2.36853 6.83037,-2.36853 10.26153,3.38873 c 11.43231,3.77537 18.74809,7.10456 20.65132,9.39781 1.88969,2.27694 9.11222,4.28155 23.71712,6.58266 12.51904,1.97248 13.4609,1.99162 21,0.42691 6.44009,-1.33662 10.28622,-1.48313 20.8931,-0.79586 7.15,0.46328 18.89483,0.70348 26.09962,0.53377 19.05154,-0.44874 27.10538,1.08369 35.32986,6.72234 3.61379,2.47759 9.37372,5.77808 12.79985,7.33443 5.4146,2.45963 6.82057,3.71107 10.75,9.56847 4.64606,6.92565 5.62151,11.10158 3.08495,13.20674 -0.78965,0.65535 -1.72656,2.5157 -2.08202,4.13411 -0.77167,3.51338 -4.70151,6.68678 -13.48752,10.89135 -3.57211,1.70944 -8.06974,3.95437 -9.99474,4.98874 -1.925,1.03437 -6.9875,3.51591 -11.25,5.51454 -4.2625,1.99862 -7.75,4.08706 -7.75,4.64097 0,0.55391 -3.0375,4.01683 -6.75,7.69537 -3.7125,3.67855 -9.01478,9.16327 -11.78285,12.18827 -2.76807,3.025 -8.54022,8.2 -12.82702,11.5 -4.28679,3.3 -8.81454,6.82312 -10.06165,7.82915 -3.07378,2.47959 -19.24293,6.17467 -40.05385,9.15338 -9.47662,1.35641 -19.88395,3.20571 -23.12742,4.10955 -5.05993,1.41003 -13.42209,1.68584 -58.89721,1.94259 -29.15,0.16457 -58.625,-0.10534 -65.5,-0.59982 z m 80,-4.94305 c 29.10117,-0.70759 40.08682,-1.32257 45,-2.5191 3.575,-0.87064 13.025,-2.48666 21,-3.59114 14.65525,-2.02967 29.49982,-4.98049 34.36999,-6.83213 4.32944,-1.64605 23.24882,-16.76395 26.69166,-21.3285 1.75102,-2.32151 6.16414,-6.99777 9.80693,-10.39168 3.64279,-3.39391 6.33519,-6.45882 5.9831,-6.8109 -0.35209,-0.35209 -3.72525,0.24643 -7.49592,1.33005 -18.20938,5.23303 -18.75129,5.29646 -52.85576,6.18698 -18.15,0.47392 -37.275,1.33312 -42.5,1.90932 -5.225,0.57621 -16.69597,1.515 -25.49105,2.08619 -8.97855,0.58311 -19.45379,1.90037 -23.88738,3.00382 -9.62961,2.39668 -23.63694,2.57804 -35.62157,0.46122 -4.675,-0.82574 -15.51866,-1.94927 -24.09701,-2.49675 -8.57836,-0.54747 -23.65336,-1.89221 -33.5,-2.9883 -9.84665,-1.09609 -27.35299,-2.46723 -38.90299,-3.04697 -11.55,-0.57974 -22.8,-1.50225 -25,-2.05003 -2.2,-0.54777 -9.09481,-1.6242 -15.32181,-2.39207 -6.226991,-0.76786 -11.851991,-1.83298 -12.499997,-2.36692 C 88.030187,256.62094 85.025,255.49821 82,254.65992 c -3.025,-0.83828 -7.975,-2.22435 -11,-3.08016 -6.826117,-1.9312 -9.385887,-2.03045 -8.29969,-0.32181 0.439829,0.69187 8.502479,8.76806 17.916999,17.94707 21.916021,21.3678 24.413781,22.66682 56.259471,29.25899 11.89277,2.46185 25.67322,4.93082 30.62322,5.48661 4.95,0.55578 11.925,1.44023 15.5,1.96543 6.93628,1.01901 41.16802,3.33892 57,3.86293 2.475,0.0819 21.825,-0.27231 43,-0.78718 z m 178.55887,-69.54697 c 1.83031,-1.46637 1.7984,-1.48719 -0.55887,-0.36454 -3.06103,1.45781 -3.62834,1.91971 -2.3578,1.91971 0.53655,0 1.84905,-0.69982 2.91667,-1.55517 z M 467,235 c 1.1749,-1.65 1.91119,-3 1.63619,-3 -0.275,0 -1.46129,1.35 -2.63619,3 -1.1749,1.65 -1.91119,3 -1.63619,3 0.275,0 1.46129,-1.35 2.63619,-3 z m -213.50708,-4.98855 c 0.35034,-0.56686 -0.0511,-0.7345 -0.94098,-0.39301 -1.73242,0.66479 -2.04939,1.38156 -0.61096,1.38156 0.51754,0 1.21592,-0.44485 1.55194,-0.98855 z m 217.31395,-1.53791 c -0.30789,-0.30789 -0.86705,0.24711 -1.24258,1.23333 -0.54268,1.4252 -0.42782,1.54006 0.5598,0.5598 0.68342,-0.67834 0.99067,-1.48524 0.68278,-1.79313 z m 0.85541,-4.72354 c -0.27741,-0.6875 -0.50439,-0.125 -0.50439,1.25 0,1.375 0.22698,1.9375 0.50439,1.25 0.27741,-0.6875 0.27741,-1.8125 0,-2.5 z M 467.5,217 c -1.5808,-1.65 -3.24709,-3 -3.70287,-3 -0.80796,0 5.27215,5.91249 6.13996,5.97069 C 470.17749,219.98681 469.0808,218.65 467.5,217 z m -13.25,-1.70573 c -1.2375,-0.23836 -3.2625,-0.23836 -4.5,0 -1.2375,0.23835 -0.225,0.43337 2.25,0.43337 2.475,0 3.4875,-0.19502 2.25,-0.43337 z m 1.75,-5.67183 c 0,-0.20765 -0.7875,-0.99515 -1.75,-1.75 -1.58606,-1.24387 -1.62143,-1.2085 -0.37756,0.37756 1.30637,1.66575 2.12756,2.19548 2.12756,1.37244 z m -33,-4.96745 c 0,-0.18976 -1.0125,-1.20226 -2.25,-2.25 L 418.5,200.5 l 1.90499,2.25 c 1.79022,2.11444 2.59501,2.70524 2.59501,1.90499 z m 13.72917,-5.25916 c -0.33229,-0.33229 -1.1948,-0.36781 -1.91667,-0.0789 -0.79773,0.31922 -0.56078,0.55618 0.60417,0.60416 1.05416,0.0434 1.64479,-0.19293 1.3125,-0.52522 z m -9.46542,-1.09976 c -1.22994,-0.23736 -3.47994,-0.24351 -5,-0.0136 -1.52006,0.22985 -0.51375,0.42406 2.23625,0.43157 2.75,0.007 3.99369,-0.18056 2.76375,-0.41792 z m -118.53458,-0.90024 c -0.33229,-0.33229 -1.1948,-0.36781 -1.91667,-0.0789 -0.79773,0.31922 -0.56078,0.55618 0.60417,0.60416 1.05416,0.0434 1.64479,-0.19293 1.3125,-0.52522 z"
       style="fill:#cc863e" />
    <path
       inkscape:connector-curvature="0"
       id="path3246"
       d="m 203,313.93485 c -6.875,-0.49447 -16.1,-1.39656 -20.5,-2.00463 -4.4,-0.60808 -12.95,-1.68905 -19,-2.40217 -12.68491,-1.49518 -44.33932,-7.9921 -49.5,-10.15964 -1.925,-0.80852 -7.55,-3.45721 -12.5,-5.88598 -8.544782,-4.19258 -10.011596,-5.43502 -29,-24.56405 C 59.06835,255.38726 50.693704,247.7568 47,245.68434 39.310548,241.36996 28.962691,230.68662 26.597211,224.62008 23.722892,217.24857 24.872829,215.96376 42.367623,207 c 8.050864,-4.125 17.123574,-9.25049 20.161579,-11.38998 3.52547,-2.48278 7.775019,-4.404 11.747221,-5.31091 3.422968,-0.78152 7.884653,-2.56142 9.914857,-3.95534 2.030204,-1.39391 4.095679,-2.28445 4.589943,-1.97898 0.494265,0.30547 5.085969,1.06453 10.203787,1.6868 5.11782,0.62226 11.3541,1.74804 13.8584,2.50172 3.89555,1.17239 7.3053,1.1454 23.60493,-0.18683 10.47841,-0.85645 22.42666,-1.3149 26.55166,-1.01879 5.87606,0.42181 9.88177,-0.008 18.5,-1.98327 6.05,-1.3869 12.8,-3.33416 15,-4.32723 2.2,-0.99308 5.64301,-2.5327 7.65113,-3.42139 2.00812,-0.88869 6.06478,-1.6158 9.01481,-1.6158 3.45316,0 6.69285,-0.71239 9.09524,-2 4.55495,-2.4413 6.79441,-2.48168 18.04703,-0.32541 8.34857,1.59978 8.9634,1.59618 11.78224,-0.069 1.63571,-0.96624 5.43592,-2.01089 8.44489,-2.32144 5.06035,-0.52228 5.9327,-0.27958 11.62585,3.23443 l 6.155,3.79908 6.83037,-2.36853 6.83037,-2.36853 10.26153,3.38873 c 11.43231,3.77537 18.74809,7.10456 20.65132,9.39781 1.88969,2.27694 9.11222,4.28155 23.71712,6.58266 12.51904,1.97248 13.4609,1.99162 21,0.42691 6.44009,-1.33662 10.28622,-1.48313 20.8931,-0.79586 7.15,0.46328 18.89483,0.70348 26.09962,0.53377 19.05154,-0.44874 27.10538,1.08369 35.32986,6.72234 3.61379,2.47759 9.37372,5.77808 12.79985,7.33443 5.4146,2.45963 6.82057,3.71107 10.75,9.56847 4.64606,6.92565 5.62151,11.10158 3.08495,13.20674 -0.78965,0.65535 -1.72656,2.5157 -2.08202,4.13411 -0.77167,3.51338 -4.70151,6.68678 -13.48752,10.89135 -3.57211,1.70944 -8.06974,3.95437 -9.99474,4.98874 -1.925,1.03437 -6.9875,3.51591 -11.25,5.51454 -4.2625,1.99862 -7.75,4.08706 -7.75,4.64097 0,0.55391 -3.0375,4.01683 -6.75,7.69537 -3.7125,3.67855 -9.01478,9.16327 -11.78285,12.18827 -2.76807,3.025 -8.54022,8.2 -12.82702,11.5 -4.28679,3.3 -8.81454,6.82312 -10.06165,7.82915 -3.07378,2.47959 -19.24293,6.17467 -40.05385,9.15338 -9.47662,1.35641 -19.88395,3.20571 -23.12742,4.10955 -5.05993,1.41003 -13.42209,1.68584 -58.89721,1.94259 -29.15,0.16457 -58.625,-0.10534 -65.5,-0.59982 z m 80,-4.94305 c 29.10117,-0.70759 40.08682,-1.32257 45,-2.5191 3.575,-0.87064 13.025,-2.48666 21,-3.59114 14.65525,-2.02967 29.49982,-4.98049 34.36999,-6.83213 4.32944,-1.64605 23.24882,-16.76395 26.69166,-21.3285 1.75102,-2.32151 6.16414,-6.99777 9.80693,-10.39168 3.64279,-3.39391 6.33519,-6.45882 5.9831,-6.8109 -0.35209,-0.35209 -3.72525,0.24643 -7.49592,1.33005 -18.20938,5.23303 -18.75129,5.29646 -52.85576,6.18698 -18.15,0.47392 -37.275,1.33312 -42.5,1.90932 -5.225,0.57621 -16.69597,1.515 -25.49105,2.08619 -8.97855,0.58311 -19.45379,1.90037 -23.88738,3.00382 -9.62961,2.39668 -23.63694,2.57804 -35.62157,0.46122 -4.675,-0.82574 -15.51866,-1.94927 -24.09701,-2.49675 -8.57836,-0.54747 -23.65336,-1.89221 -33.5,-2.9883 -9.84665,-1.09609 -27.35299,-2.46723 -38.90299,-3.04697 -11.55,-0.57974 -22.8,-1.50225 -25,-2.05003 -2.2,-0.54777 -9.09481,-1.6242 -15.32181,-2.39207 -6.226991,-0.76786 -11.851991,-1.83298 -12.499997,-2.36692 C 88.030187,256.62094 85.025,255.49821 82,254.65992 c -3.025,-0.83828 -7.975,-2.22435 -11,-3.08016 -6.826117,-1.9312 -9.385887,-2.03045 -8.29969,-0.32181 0.439829,0.69187 8.502479,8.76806 17.916999,17.94707 21.916021,21.3678 24.413781,22.66682 56.259471,29.25899 11.89277,2.46185 25.67322,4.93082 30.62322,5.48661 4.95,0.55578 11.925,1.44023 15.5,1.96543 6.93628,1.01901 41.16802,3.33892 57,3.86293 2.475,0.0819 21.825,-0.27231 43,-0.78718 z m -4,-41.95079 c 18.46116,-2.66409 34.96826,-3.81518 79.82979,-5.56677 l 38.32978,-1.49656 17.67022,-4.00865 c 21.88007,-4.9637 24.92548,-5.95122 38.86317,-12.60189 9.4844,-4.52569 11.6508,-6.00643 14.19241,-9.70053 1.64971,-2.39777 3.287,-5.50519 3.63842,-6.90539 1.08629,-4.32811 -4.01144,-11.6187 -9.22941,-13.19959 -1.21309,-0.36753 -4.30245,-2.40096 -6.86525,-4.51873 -8.29405,-6.8538 -13.21171,-8.92111 -24.3221,-10.22466 -7.92062,-0.9293 -10.40117,-0.9241 -11.34906,0.0238 -1.95051,1.95051 0.17463,4.20118 8.84175,9.36399 7.91456,4.71452 16.84054,7.45365 26.16793,8.03019 7.37117,0.45562 4.69193,2.28364 -2.93137,2.00005 -5.19077,-0.19311 -10.20297,-1.34348 -18.713,-4.2949 -13.06978,-4.53282 -24.88055,-6.5066 -29.60479,-4.94746 -3.42964,1.13188 -6.19861,4.72598 -4.75397,6.17062 0.5108,0.5108 5.01177,1.76525 10.00217,2.78768 4.9904,1.02243 9.89692,2.33776 10.90338,2.92297 2.5792,1.49967 0.65484,1.35343 -5.079,-0.38599 -7.65737,-2.32295 -11.19033,-1.86247 -24.45628,3.18753 l -12.3652,4.70711 -7.6348,-2.7017 c -8.41276,-2.97699 -12.58914,-3.18987 -26.59483,-1.35559 -8.31226,1.08863 -9.00205,1.35421 -9.54101,3.67347 -0.52918,2.27715 -1.11214,2.52611 -6.53996,2.79288 -6.44155,0.3166 -30.64208,3.00483 -52.76522,5.86125 l -13.80623,1.78258 -8.28042,-2.8703 c -7.68101,-2.66253 -9.03424,-2.82987 -18.69377,-2.31167 -13.57249,0.72811 -23.41267,4.18952 -34.26844,12.05436 C 192.85844,250.22579 189,252.13223 189,250.5687 c 0,-1.19935 16.03608,-11.90134 23.98467,-16.00662 l 9.07566,-4.6874 15.21983,0.13107 c 8.37091,0.0721 15.5689,0.10029 15.99552,0.0627 1.60789,-0.14181 -2.42357,-6.09338 -5.04261,-7.44432 -5.86286,-3.02415 -21.1046,-7.02304 -39.00917,-10.23462 -18.90491,-3.391 -18.18456,-3.49756 8.45077,-1.25008 l 14.17467,1.19606 10.32533,-4.07034 c 9.72267,-3.83277 11.13983,-4.11183 24.28017,-4.78114 13.31686,-0.6783 14.46772,-0.91134 25.17351,-5.09738 6.5186,-2.54882 12.87386,-4.38659 15.16944,-4.38659 5.04932,0 11.6238,2.32145 15.97623,5.64121 4.26411,3.25239 4.0144,3.53478 -9.17069,10.37085 -11.20772,5.81086 -10.33565,5.80452 -24.10333,0.17524 -8.91331,-3.64444 -9.13485,-3.67958 -23,-3.64857 -12.67809,0.0284 -14.56631,0.26965 -19.99769,2.55542 -3.29873,1.38826 -6.12408,3.18038 -6.27856,3.9825 -0.15447,0.80212 1.12269,2.2875 2.83814,3.30084 4.87537,2.87995 9.84522,7.58217 14.09768,13.33851 3.66841,4.96575 4.16461,5.284 8.23852,5.284 9.45041,0 48.39544,-6.13266 61.10191,-9.62169 8.99228,-2.46916 16.92611,-3.89927 25.73528,-4.63889 l 12.73527,-1.06925 6.96804,2.80511 6.96803,2.80511 5.58238,-2.73121 c 4.01878,-1.9662 6.69846,-4.24199 9.56703,-8.12503 4.17546,-5.65211 6.66825,-7.37647 13.69397,-9.47268 4.0231,-1.20035 5.42876,-3.10492 3.2743,-4.43645 -2.15189,-1.32994 -28.78477,-4.64294 -32.92114,-4.09523 -7.18327,0.95116 -12.16807,2.58578 -12.78455,4.19232 -0.33765,0.8799 0.59413,2.73115 2.23858,4.44759 1.54935,1.61716 2.57353,2.9403 2.27597,2.9403 -0.29756,0 -4.99425,-2.0946 -10.43709,-4.65466 -5.58878,-2.62872 -14.89058,-5.90168 -21.37104,-7.51969 -7.80614,-1.94901 -13.56119,-4.08819 -18,-6.69071 C 313.13234,185.0937 298.21379,180 293.2704,180 c -1.61526,0 -5.50201,0.51516 -8.63722,1.1448 -5.23518,1.05138 -6.24852,0.93705 -12.41679,-1.40082 -3.69401,-1.40009 -7.73978,-2.77597 -8.99059,-3.05751 -2.97435,-0.66948 -8.47788,0.88731 -11.3454,3.2093 -2.19661,1.7787 -2.21774,1.94044 -0.58003,4.4399 2.94463,4.49408 2.3472,5.00869 -5.09081,4.38512 C 240.25918,188.22193 231,185.5649 231,184.35624 c 0,-0.23463 0.71379,-1.51598 1.5862,-2.84745 2.9518,-4.50501 -0.67486,-5.80007 -8.50551,-3.03726 -2.29392,0.80934 -6.513,1.75345 -9.37573,2.09802 -2.86273,0.34457 -10.60496,2.33685 -17.20496,4.42729 -13.04063,4.1304 -20.85778,5.57609 -35.5,6.56531 -10.95252,0.73994 -16.35658,2.75856 -35.20333,13.14979 -13.87119,7.64794 -18.78776,8.21726 -7.70446,0.89215 11.811,-7.80605 15.26846,-10.75981 13.73364,-11.73288 -0.72922,-0.46232 -5.15085,-0.84809 -9.82585,-0.85726 -4.675,-0.009 -12.325,-0.69045 -17,-1.51395 -4.675,-0.8235 -10.525,-1.49467 -13,-1.49149 -6.183615,0.008 -22.251257,6.21436 -28.75,11.10521 -5.31347,3.99884 -6.269045,5.82473 -4,7.64314 1.723527,1.38122 14.89957,7.09838 22.661636,9.83301 l 6.411636,2.25886 -3.823394,0.71727 c -3.296806,0.61849 -5.004788,0.12345 -12.401141,-3.59431 C 63.176528,212.98431 57.177737,211 52.02257,211 47.06209,211 38.854724,213.53983 35.637531,216.07048 29.392212,220.98305 34.790938,234.77062 45,239.98089 49.585767,242.32126 80.871934,250 85.821779,250 c 2.864834,0 5.998122,-1.30619 12.263122,-5.1122 9.809109,-5.95907 13.522599,-7.51138 29.554659,-12.3544 16.20284,-4.8946 16.18192,-4.88934 14.36044,-3.61494 -0.825,0.5772 -7.8,3.14405 -15.5,5.70409 -7.7,2.56004 -15.575,5.45723 -17.5,6.4382 -4.61661,2.3526 -13.302681,11.03657 -12.1711,12.16815 1.840312,1.84031 26.19109,4.88535 66.6711,8.33714 23.1,1.96978 49.65,4.39385 59,5.38684 23.13227,2.45668 39.90548,2.48285 56.5,0.0881 z m -92.25,-58.70329 c 0.6875,-0.27741 1.8125,-0.27741 2.5,0 0.6875,0.27741 0.125,0.50439 -1.25,0.50439 -1.375,0 -1.9375,-0.22698 -1.25,-0.50439 z m 122.68501,-0.95268 c 3.88574,-1.98823 7.47342,-3.99416 7.97261,-4.45762 1.3932,-1.29349 -0.91415,-3.44444 -5.2189,-4.86514 -3.23493,-1.06762 -4.84993,-1.00853 -10.25068,0.37508 -7.73781,1.98234 -11.09841,3.98114 -10.27988,6.11421 0.728,1.89713 7.26298,6.44843 9.25898,6.44843 0.79908,0 4.63212,-1.62673 8.51787,-3.61496 z"
       style="fill:#a56f39" />
    <path
       inkscape:connector-curvature="0"
       id="path3244"
       d="m 203,313.93485 c -6.875,-0.49447 -16.1,-1.39656 -20.5,-2.00463 -4.4,-0.60808 -12.95,-1.68905 -19,-2.40217 -12.68491,-1.49518 -44.33932,-7.9921 -49.5,-10.15964 -1.925,-0.80852 -7.55,-3.45721 -12.5,-5.88598 -8.544782,-4.19258 -10.011596,-5.43502 -29,-24.56405 C 59.06835,255.38726 50.693704,247.7568 47,245.68434 39.310548,241.36996 28.962691,230.68662 26.597211,224.62008 23.722892,217.24857 24.872829,215.96376 42.367623,207 c 8.050864,-4.125 17.123574,-9.25049 20.161579,-11.38998 3.52547,-2.48278 7.775019,-4.404 11.747221,-5.31091 3.422968,-0.78152 7.884653,-2.56142 9.914857,-3.95534 2.030204,-1.39391 4.095679,-2.28445 4.589943,-1.97898 0.494265,0.30547 5.085969,1.06453 10.203787,1.6868 5.11782,0.62226 11.3541,1.74804 13.8584,2.50172 3.89555,1.17239 7.3053,1.1454 23.60493,-0.18683 10.47841,-0.85645 22.42666,-1.3149 26.55166,-1.01879 5.87606,0.42181 9.88177,-0.008 18.5,-1.98327 6.05,-1.3869 12.8,-3.33416 15,-4.32723 2.2,-0.99308 5.64301,-2.5327 7.65113,-3.42139 2.00812,-0.88869 6.06478,-1.6158 9.01481,-1.6158 3.45316,0 6.69285,-0.71239 9.09524,-2 4.55495,-2.4413 6.79441,-2.48168 18.04703,-0.32541 8.34857,1.59978 8.9634,1.59618 11.78224,-0.069 1.63571,-0.96624 5.43592,-2.01089 8.44489,-2.32144 5.06035,-0.52228 5.9327,-0.27958 11.62585,3.23443 l 6.155,3.79908 6.83037,-2.36853 6.83037,-2.36853 10.26153,3.38873 c 11.43231,3.77537 18.74809,7.10456 20.65132,9.39781 1.88969,2.27694 9.11222,4.28155 23.71712,6.58266 12.51904,1.97248 13.4609,1.99162 21,0.42691 6.44009,-1.33662 10.28622,-1.48313 20.8931,-0.79586 7.15,0.46328 18.89483,0.70348 26.09962,0.53377 19.05154,-0.44874 27.10538,1.08369 35.32986,6.72234 3.61379,2.47759 9.37372,5.77808 12.79985,7.33443 5.4146,2.45963 6.82057,3.71107 10.75,9.56847 4.64606,6.92565 5.62151,11.10158 3.08495,13.20674 -0.78965,0.65535 -1.72656,2.5157 -2.08202,4.13411 -0.77167,3.51338 -4.70151,6.68678 -13.48752,10.89135 -3.57211,1.70944 -8.06974,3.95437 -9.99474,4.98874 -1.925,1.03437 -6.9875,3.51591 -11.25,5.51454 -4.2625,1.99862 -7.75,4.08706 -7.75,4.64097 0,0.55391 -3.0375,4.01683 -6.75,7.69537 -3.7125,3.67855 -9.01478,9.16327 -11.78285,12.18827 -2.76807,3.025 -8.54022,8.2 -12.82702,11.5 -4.28679,3.3 -8.81454,6.82312 -10.06165,7.82915 -3.07378,2.47959 -19.24293,6.17467 -40.05385,9.15338 -9.47662,1.35641 -19.88395,3.20571 -23.12742,4.10955 -5.05993,1.41003 -13.42209,1.68584 -58.89721,1.94259 -29.15,0.16457 -58.625,-0.10534 -65.5,-0.59982 z m 80,-4.94305 c 29.10117,-0.70759 40.08682,-1.32257 45,-2.5191 3.575,-0.87064 13.025,-2.48666 21,-3.59114 14.65525,-2.02967 29.49982,-4.98049 34.36999,-6.83213 4.32944,-1.64605 23.24882,-16.76395 26.69166,-21.3285 1.75102,-2.32151 6.16414,-6.99777 9.80693,-10.39168 3.64279,-3.39391 6.33519,-6.45882 5.9831,-6.8109 -0.35209,-0.35209 -3.72525,0.24643 -7.49592,1.33005 -18.20938,5.23303 -18.75129,5.29646 -52.85576,6.18698 -18.15,0.47392 -37.275,1.33312 -42.5,1.90932 -5.225,0.57621 -16.69597,1.515 -25.49105,2.08619 -8.97855,0.58311 -19.45379,1.90037 -23.88738,3.00382 -9.62961,2.39668 -23.63694,2.57804 -35.62157,0.46122 -4.675,-0.82574 -15.51866,-1.94927 -24.09701,-2.49675 -8.57836,-0.54747 -23.65336,-1.89221 -33.5,-2.9883 -9.84665,-1.09609 -27.35299,-2.46723 -38.90299,-3.04697 -11.55,-0.57974 -22.8,-1.50225 -25,-2.05003 -2.2,-0.54777 -9.09481,-1.6242 -15.32181,-2.39207 -6.226991,-0.76786 -11.851991,-1.83298 -12.499997,-2.36692 C 88.030187,256.62094 85.025,255.49821 82,254.65992 c -3.025,-0.83828 -7.975,-2.22435 -11,-3.08016 -6.826117,-1.9312 -9.385887,-2.03045 -8.29969,-0.32181 0.439829,0.69187 8.502479,8.76806 17.916999,17.94707 21.916021,21.3678 24.413781,22.66682 56.259471,29.25899 11.89277,2.46185 25.67322,4.93082 30.62322,5.48661 4.95,0.55578 11.925,1.44023 15.5,1.96543 6.93628,1.01901 41.16802,3.33892 57,3.86293 2.475,0.0819 21.825,-0.27231 43,-0.78718 z m -3,-41.94609 c 16.98562,-2.44524 34.961,-3.67897 81,-5.55939 20.075,-0.81994 37.4,-1.70415 38.5,-1.96491 1.1,-0.26076 10.05522,-2.3308 19.90048,-4.60009 25.61903,-5.90509 43.28317,-13.69427 48.60854,-21.43443 4.66569,-6.78135 4.91833,-10.3611 1.04276,-14.77513 -1.73775,-1.97919 -4.69232,-4.41151 -6.5657,-5.40515 -1.87339,-0.99363 -6.80949,-4.15081 -10.96911,-7.01595 -8.62888,-5.94356 -11.82697,-7.04331 -23.03677,-7.92182 -6.49743,-0.5092 -8.25877,-0.34057 -9.27866,0.88832 -1.0501,1.26529 -0.76926,1.9288 1.6936,4.00115 8.37159,7.04423 22.65094,12.72525 32.06496,12.757 4.88758,0.0165 8.03824,1.24965 6.15946,2.41079 -2.25728,1.39509 -14.06584,-0.75903 -27.11956,-4.94713 -16.87779,-5.41501 -26.08878,-6.47843 -30.75,-3.55011 -1.91562,1.20345 -3.25,2.86893 -3.25,4.05644 0,1.10809 0.17529,2.0147 0.38953,2.0147 2.22274,0 17.44962,3.40518 18.59895,4.15927 1.1748,0.77082 1.06599,0.84288 -0.48848,0.3235 -1.1,-0.36753 -4.54991,-0.91059 -7.66646,-1.20681 -5.00535,-0.47575 -7.14782,0.007 -18.36309,4.13719 l -12.69662,4.67577 -8.03827,-2.67699 c -7.36689,-2.4534 -8.84,-2.61813 -17.63692,-1.97226 -14.49572,1.06428 -16.9836,1.6805 -18.41156,4.56033 -1.16042,2.34028 -1.87502,2.54151 -11.18559,3.14976 -5.47029,0.35737 -21.71527,2.13782 -36.09994,3.95656 l -26.15396,3.30679 -7.2108,-2.82906 c -6.79485,-2.66587 -7.85473,-2.7995 -18.3738,-2.31658 -14.82347,0.68052 -24.08993,3.83304 -34.96232,11.89442 -4.33062,3.21096 -8.62239,5.8281 -9.53726,5.81587 -1.28113,-0.0171 -1.08886,-0.48279 0.83659,-2.02621 5.27339,-4.22711 18.77212,-12.86823 24.84395,-15.90369 l 6.34395,-3.1715 15.60846,0.20458 c 10.94121,0.14341 15.72189,-0.13569 15.98778,-0.93337 0.20863,-0.62588 -0.8999,-2.41718 -2.46339,-3.98067 -4.15715,-4.15715 -19.15259,-8.77872 -41.09671,-12.66594 -21.27094,-3.76797 -21.57168,-4.11857 -1.72404,-2.00982 21.15274,2.2474 23.70872,2.08655 33.53036,-2.11012 7.84225,-3.35091 9.57708,-3.69125 23.41994,-4.59459 14.15668,-0.92381 15.55538,-1.20946 26.34878,-5.38102 6.9106,-2.67088 13.03293,-4.4051 15.5497,-4.40462 4.37398,8.3e-4 15.15085,4.47347 17.43741,7.23692 1.42204,1.71862 1.03197,2.01834 -11.88229,9.12995 -7.87078,4.33428 -11.71345,4.57547 -19.68403,1.2355 -10.72286,-4.49327 -16.12582,-5.60407 -27.15137,-5.58207 -8.61747,0.0172 -11.84799,0.47255 -17.49939,2.4666 -10.66728,3.76387 -10.90646,4.43107 -3.45235,9.63079 5.54727,3.86957 9.03036,7.54268 14.33749,15.11967 1.86426,2.6616 3.2249,2.6234 29.54575,-0.8294 19.6354,-2.57579 28.95071,-4.371 45.5,-8.76855 4.98493,-1.32462 13.81665,-2.70129 19.79678,-3.08588 10.24646,-0.65896 11.15195,-0.555 17.76505,2.03955 l 6.96826,2.73391 5.16212,-2.41389 c 3.71057,-1.73512 6.53213,-4.15632 10.03427,-8.61049 3.97792,-5.05927 5.87947,-6.57349 10.36035,-8.25 3.01851,-1.12937 5.95431,-2.0534 6.52401,-2.0534 2.18082,0 0.25798,-3.39125 -2.31263,-4.07871 -7.03742,-1.88201 -26.64919,-4.06865 -31.25601,-3.48493 -6.29127,0.79716 -11.82111,2.51113 -12.75196,3.95246 -0.39037,0.60445 0.73463,2.5935 2.5,4.42012 3.17778,3.28804 3.18334,3.31114 0.55846,2.31837 -1.45821,-0.55151 -5.88726,-2.63236 -9.84232,-4.6241 -4.02263,-2.02576 -12.53109,-4.94201 -19.31086,-6.61875 -8.46877,-2.09444 -13.9075,-4.08336 -18.05409,-6.60228 C 313.8577,185.16128 298.40371,180 292.84858,180 c -2.06258,0 -6.03947,0.49097 -8.83754,1.09105 -4.57341,0.98082 -5.72076,0.83751 -11.35601,-1.41844 -9.72851,-3.89459 -12.72637,-4.18702 -17.57338,-1.71426 -4.90458,2.50212 -5.94069,4.43494 -3.70293,6.90764 2.60907,2.88299 1.95281,4.13401 -2.16862,4.13401 -4.48119,0 -15.02947,-2.6052 -16.92803,-4.18087 -1.10263,-0.9151 -1.06939,-1.39666 0.1927,-2.79125 0.83888,-0.92695 1.52523,-2.43743 1.52523,-3.35662 0,-2.12758 -5.31909,-2.26876 -10.12788,-0.26882 -1.85466,0.77135 -6.07212,1.7111 -9.37212,2.08835 -3.3,0.37724 -10.54387,2.19377 -16.09749,4.03673 -12.30611,4.08377 -23.81289,6.23338 -36.40251,6.80046 -8.97139,0.40411 -10.08425,0.71024 -20,5.50164 -5.775,2.79054 -14.40517,7.16874 -19.17816,9.72932 -4.77299,2.56059 -9.13962,4.49484 -9.70362,4.29834 -0.564,-0.1965 3.29411,-3.28228 8.57357,-6.85728 15.2736,-10.34256 15.42081,-10.9915 2.49919,-11.01746 -4.78004,-0.01 -12.74098,-0.68289 -17.69098,-1.49619 -13.452254,-2.21026 -17.076525,-1.9379 -27.709075,2.08229 C 68.33781,197.52099 59.5,203.4645 59.5,206.54196 c 0,2.21796 6.574959,5.78166 20.31957,11.01344 8.026478,3.05521 8.202976,3.19009 5.009973,3.82869 -2.682304,0.53646 -4.735753,-0.0823 -10.833998,-3.26467 -9.95472,-5.19484 -17.954586,-7.4534 -24.482592,-6.91205 -6.484335,0.53773 -14.619997,4.46354 -16.21233,7.82316 -2.717197,5.73294 3.497592,16.78523 11.828266,21.03522 5.105148,2.60446 35.101067,9.9054 40.763048,9.92165 3.387761,0.01 5.788491,-0.86927 10.5,-3.8444 3.359435,-2.12135 8.388703,-5.01245 11.176163,-6.42467 4.98918,-2.52769 32.25545,-11.22812 32.96479,-10.51878 0.20007,0.20007 -7.25211,3.01321 -16.56039,6.25141 -15.97553,5.55764 -17.24139,6.19005 -22.58398,11.28269 -3.756597,3.58084 -5.325038,5.72983 -4.664221,6.39065 0.547587,0.54759 6.256201,1.85375 12.685801,2.90258 11.93096,1.94623 22.28321,2.98439 75.0899,7.53026 16.5,1.4204 35.4,3.17038 42,3.88884 18.32523,1.99485 37.87878,1.84855 53.5,-0.40027 z m 30.62689,-60.11576 C 314.6821,204.69143 318,202.26529 318,201.53853 c 0,-2.31361 -7.91487,-4.77651 -12.97113,-4.03627 -5.11246,0.74846 -12.40871,3.68529 -13.48591,5.42823 -1.34232,2.17192 5.83385,8.05781 9.83393,8.06577 1.03229,0.002 5.19479,-1.82778 9.25,-4.06631 z"
       style="fill:#615f5d" />
    <path
       inkscape:connector-curvature="0"
       id="path3242"
       d="m 202.51699,313.4487 c -9.89065,-0.71614 -22.94065,-1.99522 -29,-2.84241 C 167.45765,309.7591 159.35,308.62571 155.5,308.08765 142.28037,306.24014 116.49413,300.17667 109.32897,297.23084 96.482748,291.94935 92.991155,289.23468 72.990259,268.97804 59.54181,255.35762 51.590762,248.11127 47.397879,245.65389 37.874825,240.07258 31.439306,233.70642 27.96842,226.43383 c -2.47609,-5.18818 -2.847817,-6.79066 -1.96003,-8.44951 1.734024,-3.24005 8.217192,-7.42693 18.44775,-11.91371 8.570508,-3.75873 17.534331,-9.00125 21.584698,-12.62389 0.847461,-0.75796 3.997461,-1.88823 7,-2.51169 3.002539,-0.62347 7.425866,-2.26464 9.829615,-3.64705 4.311178,-2.47938 4.501056,-2.49723 14,-1.31643 5.296247,0.65838 12.075937,1.87107 15.065977,2.69488 4.74007,1.30597 7.49404,1.3272 21.5,0.1657 8.83496,-0.73267 21.46357,-1.22497 28.06357,-1.09399 8.20648,0.16285 13.42257,-0.21188 16.5,-1.1854 2.475,-0.78294 7.16673,-1.95095 10.42606,-2.59558 3.25934,-0.64463 8.23064,-2.41887 11.04733,-3.94276 3.57129,-1.93214 7.37684,-2.99462 12.57394,-3.51053 4.09897,-0.4069 9.19125,-1.62193 11.31617,-2.70007 4.19455,-2.12822 8.83246,-1.93277 19.42936,0.81879 4.82583,1.25305 5.61998,1.20875 9,-0.5021 8.11303,-4.10652 14.8353,-3.78684 20.84797,0.99142 4.30969,3.42492 6.07847,3.53832 13.65485,0.87544 l 5.72636,-2.01266 13.1445,4.47027 c 7.86373,2.67435 14.58858,5.62926 16.73898,7.35512 4.64183,3.72544 7.77077,4.67525 24.01462,7.28983 13.17137,2.12003 13.59397,2.12736 22.79661,0.39512 7.4666,-1.40545 11.25108,-1.59206 18.57986,-0.91612 5.06186,0.46686 17.75339,0.90174 28.20339,0.96639 10.89887,0.0674 21.04726,0.62466 23.80153,1.30691 2.64084,0.65415 8.26584,3.55699 12.5,6.45077 4.23416,2.89377 9.75421,6.04266 12.26677,6.99753 3.60502,1.37004 5.43284,2.98897 8.66828,7.67763 5.83896,8.46157 5.9433,9.20854 2.31561,16.57741 -3.00105,6.096 -3.47783,6.54332 -10.9724,10.29447 -4.30927,2.15686 -9.56956,5.1002 -11.68954,6.54077 -2.11999,1.44057 -4.53756,2.62361 -5.37238,2.62898 -4.47963,0.0288 -12.2671,5.32826 -21.48137,14.61823 -5.38536,5.4296 -10.91986,11.34405 -12.2989,13.14322 -2.26542,2.95558 -10.28612,9.79957 -18.59887,15.87023 -1.7263,1.26068 -4.13115,3.02069 -5.34411,3.91113 -3.09555,2.27244 -19.89886,5.97051 -40.57757,8.93029 -9.67304,1.38453 -18.85403,3.00032 -20.4022,3.59066 -7.43708,2.83588 -92.74418,3.76841 -125.79786,1.37517 z m 93.1106,-4.42218 c 18.1056,-0.60624 29.08062,-1.40835 33,-2.41182 3.22983,-0.82692 12.39741,-2.4012 20.37241,-3.49839 15.68756,-2.15828 31.96193,-5.50928 35.37016,-7.28294 1.17141,-0.60961 6.17984,-4.17868 11.12984,-7.93127 9.003,-6.82517 31.27641,-29.45903 30.12396,-30.61147 -0.33613,-0.33614 -3.20154,0.16392 -6.36756,1.11124 -3.16602,0.94732 -8.4564,2.33049 -11.7564,3.0737 -3.3,0.74321 -7.8,1.82951 -10,2.414 -2.21321,0.58801 -14.05069,1.0953 -26.5,1.13565 -12.375,0.0401 -28.575,0.48175 -36,0.9814 -40.47023,2.72337 -54.51081,4.06996 -62.08035,5.95391 -9.83389,2.44751 -21.11948,2.6257 -32.91965,0.51977 -4.675,-0.83433 -15.475,-1.96512 -24,-2.51288 -8.525,-0.54776 -26.075,-2.09634 -39,-3.4413 -12.925,-1.34496 -32.10577,-2.86736 -42.62393,-3.3831 -10.51816,-0.51574 -19.96816,-1.38933 -21,-1.94131 -1.03184,-0.55198 -6.77834,-1.49683 -12.77,-2.09966 -5.99166,-0.60283 -11.433371,-1.54376 -12.092689,-2.09094 C 86.961065,255.7228 67.188118,250.01429 64.25,250.0062 c -1.2375,-0.003 -2.25,0.40365 -2.25,0.90457 0,1.59986 34.718237,34.52449 38.17578,36.20355 1.82832,0.88788 5.79922,2.78963 8.82422,4.2261 5.96992,2.83493 41.8815,10.98692 53.5,12.1446 3.85,0.38362 11.05,1.31001 16,2.05865 4.95,0.74864 16.2,1.84057 25,2.42651 8.8,0.58595 18.025,1.20374 20.5,1.37288 10.15812,0.6942 46.19811,0.53493 71.62759,-0.31654 z m -11.63513,-42.3822 c 13.80422,-2.04571 33.71394,-3.37151 77.50754,-5.16125 33.03165,-1.34992 37.07191,-1.71107 49,-4.37997 25.13434,-5.62378 29.76872,-7.08349 42.42097,-13.36146 11.24783,-5.58111 12.92297,-6.75628 15.82903,-11.10465 1.7875,-2.67466 3.25,-5.99655 3.25,-7.38197 0,-3.95839 -3.85101,-9.18949 -8.52018,-11.57357 -2.34977,-1.1998 -7.2796,-4.38385 -10.95516,-7.07566 -8.26331,-6.05169 -12.26828,-7.46744 -23.34952,-8.25401 -7.16716,-0.50873 -8.93646,-0.3443 -9.99297,0.92871 -1.66954,2.01169 0.90165,4.51704 9.71175,9.46305 8.69037,4.87879 13.29824,6.36799 22.02589,7.11845 4.85897,0.41781 7.57309,1.10111 7.86393,1.97981 0.81163,2.4521 -12.42559,0.23148 -27.01668,-4.53222 -11.06103,-3.61121 -15.27038,-4.51525 -21.63499,-4.64656 -6.56735,-0.13548 -8.26673,0.16547 -10.06108,1.78181 -1.19338,1.07497 -2.02753,2.86402 -1.86501,4 0.24521,1.71397 1.37314,2.21256 6.79402,3.00318 l 6.5,0.94801 -6,0.69649 c -3.3,0.38307 -10.90405,2.57997 -16.89789,4.882 l -10.89789,4.18551 -7.46681,-2.7233 c -6.79438,-2.47805 -8.2895,-2.668 -16.60211,-2.10928 -15.87488,1.067 -18.68778,1.68039 -19.68056,4.29161 -1.02868,2.70563 -2.35962,3.05778 -14.45474,3.82459 -4.95,0.31382 -20.34469,1.99547 -34.21042,3.73699 l -25.21041,3.1664 -7.12659,-2.79602 c -6.6648,-2.61484 -7.84993,-2.76587 -18.28959,-2.33066 -13.78034,0.57447 -23.98856,3.81484 -33.06202,10.49478 -3.35553,2.47037 -7.45097,5.18961 -9.10097,6.04275 -2.83171,1.46416 -2.9188,1.45329 -1.55256,-0.19372 2.38994,-2.88107 12.99075,-10.02709 22.32753,-15.05101 l 8.77498,-4.72162 15.97515,0.35424 c 17.55164,0.38919 18.10541,0.17683 13.2249,-5.07143 -3.94438,-4.24159 -18.01859,-8.57864 -39.98844,-12.32267 -10.03114,-1.70947 -18.09924,-3.24733 -17.92911,-3.41746 0.17013,-0.17013 6.80243,0.35118 14.73844,1.15847 21.98993,2.23693 24.41758,2.08651 34.0905,-2.11228 7.78382,-3.37877 9.32339,-3.67918 23.14019,-4.51518 14.17763,-0.85783 15.30973,-1.08997 26.85662,-5.50706 13.73907,-5.25568 17.86001,-5.40958 26.57666,-0.99252 8.71078,4.41409 8.63106,4.75513 -2.5829,11.04907 -11.57919,6.49893 -14.26244,6.83642 -23.43209,2.94718 -9.98065,-4.23321 -15.53756,-5.3374 -26.92438,-5.35002 -8.84912,-0.01 -11.86356,0.40884 -17.39155,2.41539 -10.46037,3.79691 -10.75607,4.58 -3.57173,9.45879 3.38272,2.29717 8.14108,6.85745 10.80878,10.35886 2.62114,3.4403 5.18154,6.54208 5.68976,6.89285 1.08927,0.75178 2.46893,0.60827 31.16925,-3.24218 14.16324,-1.90015 26.59021,-4.21521 34.88602,-6.49904 8.99221,-2.47554 16.69764,-3.85708 25.5,-4.572 12.47171,-1.01294 12.68024,-0.99517 18.48841,1.57548 3.23094,1.42999 6.5084,2.59998 7.28324,2.59998 3.77517,0 11.44146,-5.28074 15.69925,-10.81406 3.67102,-4.77076 5.55444,-6.25713 10.16354,-8.02094 3.11163,-1.19075 6.32997,-2.165 7.15186,-2.165 2.17293,0 1.07848,-2.30626 -1.74616,-3.67956 -1.33439,-0.64876 -8.74752,-1.97341 -16.47364,-2.94367 -13.27801,-1.66748 -14.42537,-1.67085 -20.94643,-0.0616 -3.79443,0.93637 -7.24245,2.25828 -7.66228,2.93758 -0.46949,0.75964 0.47226,2.51355 2.44643,4.55621 3.17778,3.28804 3.18334,3.31114 0.55846,2.31837 -1.45821,-0.55151 -5.92679,-2.65227 -9.93017,-4.66834 -4.00338,-2.01607 -11.5853,-4.75228 -16.8487,-6.08046 -13.33227,-3.36432 -15.5634,-4.16905 -21.95104,-7.9174 C 312.41182,184.52537 298.44107,180 292.9976,180 c -2.14454,0 -6.15164,0.48307 -8.90466,1.07349 -4.60339,0.98725 -5.68329,0.81603 -13.44247,-2.13132 -9.52795,-3.61923 -13.17378,-3.52321 -18.15047,0.47801 -2.99866,2.41091 -2.99921,2.41333 -1.23412,5.42707 1.13754,1.94227 1.39821,3.24232 0.73258,3.6537 -1.69426,1.04711 -12.1711,-0.57645 -16.89548,-2.61824 -4.15893,-1.79742 -4.30784,-1.99886 -2.75,-3.72025 0.90586,-1.00097 1.64702,-2.61732 1.64702,-3.59189 0,-1.50214 -0.64715,-1.69027 -4.25,-1.23548 -8.1356,1.02694 -20.32045,3.83463 -31.25,7.20075 -15.63725,4.81603 -19.44481,5.53889 -33.5,6.35996 l -12.5,0.73023 -11.5,5.63781 c -6.325,3.1008 -15.00958,7.51286 -19.29907,9.80458 -4.28949,2.29172 -8.03775,3.92809 -8.32946,3.63638 -0.29171,-0.29171 4.11787,-3.74671 9.79907,-7.67778 5.6812,-3.93107 10.32946,-7.68281 10.32946,-8.33721 0,-0.81775 -3.75241,-1.39183 -12,-1.83586 -6.6,-0.35533 -14.42392,-1.14283 -17.38649,-1.75 -9.564486,-1.96022 -15.404907,-1.40673 -25.241241,2.39206 -4.978784,1.92281 -10.474319,4.47021 -12.212301,5.66089 C 62.372799,202.094 58,206.18166 58,207.25216 c 0,1.04285 12.457644,6.92143 23,10.85336 l 7.5,2.79724 -4.590231,0.0486 c -3.283176,0.0348 -6.130648,-0.80041 -10,-2.93308 -9.194394,-5.06767 -17.341493,-7.33774 -24.323257,-6.77731 -6.482935,0.52039 -12.82769,3.15426 -15.971026,6.62998 -3.732522,4.1272 0.267922,13.72149 8.477505,20.33164 2.844888,2.29063 7.284073,3.81998 21.320555,7.34519 22.771809,5.71904 24.780812,5.71937 33.950432,0.006 3.924812,-2.44562 9.227052,-5.37112 11.782742,-6.50111 5.15999,-2.28146 30.09444,-10.14448 30.59185,-9.64706 0.17368,0.17368 -7.14329,2.91293 -16.25993,6.08722 -15.35574,5.34665 -16.97695,6.15085 -22.02718,10.92655 C 98.453156,249.25433 96,252.0732 96,252.68318 c 0,2.48861 20.80533,5.17715 76.5,9.88559 23.1,1.95288 47.175,4.16091 53.5,4.90673 14.4047,1.69854 43.76142,1.27778 57.99246,-0.83118 z M 412.8125,219.31689 c 0.72187,-0.28887 1.58438,-0.25335 1.91667,0.0789 0.33229,0.33229 -0.25834,0.56864 -1.3125,0.52522 -1.16495,-0.048 -1.4019,-0.28494 -0.60417,-0.60416 z M 311,206.70912 c 4.125,-2.34905 7.45,-4.70707 7.38889,-5.24006 -0.22682,-1.97818 -6.03545,-3.96722 -11.38889,-3.89988 -6.00938,0.0756 -16,3.79109 -16,5.95037 0,2.22015 6.89075,7.48111 9.7848,7.4705 1.49336,-0.005 6.0902,-1.93189 10.2152,-4.28093 z"
       style="fill:#020201" />
  </g>
</svg>
